+ filenameToUse=/home/horvathandras/vatic/vatic/public/videouploads/DJI_0023_5m_30m_taposas_kotcse_20180710_napos_kalaszos_T4.avi
+ filenameNoDot=DJI_0023_5m_30m_taposas_kotcse_20180710_napos_kalaszos_T4
+ FullUploadPath=/home/horvathandras/vatic/vatic/public/videouploads/DJI_0023_5m_30m_taposas_kotcse_20180710_napos_kalaszos_T4.avi
+ VideoDataDir=/home/horvathandras/vatic/vatic/videos
+ AvailableObjectTypes='PozitívROI NegatívROI Túrás ~Friss ~1-2Hetes ~Régebbi ~Egyéb1 ~Egyéb2 ~Egyéb3 Rágás ~Friss ~1-2Hetes ~Régebbi ~Egyéb1 ~Egyéb2 ~Egyéb3 Törés ~Friss ~1-2Hetes ~Régebbi ~Egyéb1 ~Egyéb2 ~Egyéb3 Taposás ~Friss ~1-2Hetes ~Régebbi ~Egyéb1 ~Egyéb2 ~Egyéb3 EgészségesNövény Egyéb1 Egyéb2 Egyéb3 Egyéb4 Egyéb5 Bizonytalan Művelőút Gktaposás Vetőhiba Széldöntés Jégkár Belvíz Aszály Erózió EgyszikűGyom KétszikűGyom EgyébNövvédelmiPR'
++ dirname /home/horvathandras/vatic/vatic/vatic_publisher.sh
+ cd /home/horvathandras/vatic/vatic
+ touch /home/horvathandras/vatic/vatic/public/videouploads/DJI_0023_5m_30m_taposas_kotcse_20180710_napos_kalaszos_T4.avi
+ chmod 744 /home/horvathandras/vatic/vatic/public/videouploads/DJI_0023_5m_30m_taposas_kotcse_20180710_napos_kalaszos_T4.avi
+ mkdir /home/horvathandras/vatic/vatic/videos/DJI_0023_5m_30m_taposas_kotcse_20180710_napos_kalaszos_T4
+ turkic extract /home/horvathandras/vatic/vatic/public/videouploads/DJI_0023_5m_30m_taposas_kotcse_20180710_napos_kalaszos_T4.avi /home/horvathandras/vatic/vatic/videos/DJI_0023_5m_30m_taposas_kotcse_20180710_napos_kalaszos_T4 --no-resize
ffmpeg version 2.8.14-0ubuntu0.16.04.1 Copyright (c) 2000-2018 the FFmpeg developers
  built with gcc 5.4.0 (Ubuntu 5.4.0-6ubuntu1~16.04.9) 20160609
  configuration: --prefix=/usr --extra-version=0ubuntu0.16.04.1 --build-suffix=-ffmpeg --toolchain=hardened --libdir=/usr/lib/x86_64-linux-gnu --incdir=/usr/include/x86_64-linux-gnu --cc=cc --cxx=g++ --enable-gpl --enable-shared --disable-stripping --disable-decoder=libopenjpeg --disable-decoder=libschroedinger --enable-avresample --enable-avisynth --enable-gnutls --enable-ladspa --enable-libass --enable-libbluray --enable-libbs2b --enable-libcaca --enable-libcdio --enable-libflite --enable-libfontconfig --enable-libfreetype --enable-libfribidi --enable-libgme --enable-libgsm --enable-libmodplug --enable-libmp3lame --enable-libopenjpeg --enable-libopus --enable-libpulse --enable-librtmp --enable-libschroedinger --enable-libshine --enable-libsnappy --enable-libsoxr --enable-libspeex --enable-libssh --enable-libtheora --enable-libtwolame --enable-libvorbis --enable-libvpx --enable-libwavpack --enable-libwebp --enable-libx265 --enable-libxvid --enable-libzvbi --enable-openal --enable-opengl --enable-x11grab --enable-libdc1394 --enable-libiec61883 --enable-libzmq --enable-frei0r --enable-libx264 --enable-libopencv
  libavutil      54. 31.100 / 54. 31.100
  libavcodec     56. 60.100 / 56. 60.100
  libavformat    56. 40.101 / 56. 40.101
  libavdevice    56.  4.100 / 56.  4.100
  libavfilter     5. 40.101 /  5. 40.101
  libavresample   2.  1.  0 /  2.  1.  0
  libswscale      3.  1.101 /  3.  1.101
  libswresample   1.  2.101 /  1.  2.101
  libpostproc    53.  3.100 / 53.  3.100
Input #0, mov,mp4,m4a,3gp,3g2,mj2, from '/home/horvathandras/vatic/vatic/public/videouploads/DJI_0023_5m_30m_taposas_kotcse_20180710_napos_kalaszos_T4.avi':
  Metadata:
    major_brand     : qt  
    minor_version   : 537986816
    compatible_brands: qt  
    creation_time   : 2018-07-10 09:29:15
    location        : +46.714982+17.868944+10.600
    location-{    : +46.714982+17.868944+10.600
    comment         : DE=None, Mode=P, DSW=0001
  Duration: 00:00:22.16, start: 0.000000, bitrate: 100753 kb/s
    Stream #0:0(eng): Video: h264 (High) (avc1 / 0x31637661), yuv420p(tv, bt709), 4096x2160 [SAR 1:1 DAR 256:135], 100561 kb/s, 50 fps, 50 tbr, 50k tbn, 100 tbc (default)
    Metadata:
      creation_time   : 2018-07-10 09:29:15
      handler_name    : DJI.AVC
      encoder         : AVC encoder
    Stream #0:1(eng): Data: none (priv / 0x76697270), 180 kb/s
    Metadata:
      creation_time   : 2018-07-10 09:29:15
      handler_name    : DJI.Meta
Please use -b:a or -b:v, -b is ambiguous
[swscaler @ 0xeabc00] deprecated pixel format used, make sure you did set range correctly
Output #0, image2, to '/tmp/pyvision-ffmpeg-19923453/%d.jpg':
  Metadata:
    major_brand     : qt  
    minor_version   : 537986816
    compatible_brands: qt  
    comment         : DE=None, Mode=P, DSW=0001
    location        : +46.714982+17.868944+10.600
    location-{    : +46.714982+17.868944+10.600
    encoder         : Lavf56.40.101
    Stream #0:0(eng): Video: mjpeg, yuvj420p(pc), 4096x2160 [SAR 1:1 DAR 256:135], q=2-31, 10000 kb/s, 50 fps, 50 tbn, 50 tbc (default)
    Metadata:
      creation_time   : 2018-07-10 09:29:15
      handler_name    : DJI.AVC
      encoder         : Lavc56.60.100 mjpeg
Stream mapping:
  Stream #0:0 -> #0:0 (h264 (native) -> mjpeg (native))
Press [q] to stop, [?] for help
frame=    1 fps=0.7 q=19.5 size=N/A time=00:00:00.02 bitrate=N/A    frame=    4 fps=1.8 q=24.8 size=N/A time=00:00:00.08 bitrate=N/A    frame=    7 fps=2.5 q=24.8 size=N/A time=00:00:00.14 bitrate=N/A    frame=   10 fps=2.8 q=24.8 size=N/A time=00:00:00.20 bitrate=N/A    frame=   12 fps=3.0 q=24.8 size=N/A time=00:00:00.24 bitrate=N/A    frame=   14 fps=3.1 q=24.8 size=N/A time=00:00:00.28 bitrate=N/A    frame=   16 fps=3.2 q=24.8 size=N/A time=00:00:00.32 bitrate=N/A    frame=   19 fps=3.4 q=24.8 size=N/A time=00:00:00.38 bitrate=N/A    frame=   22 fps=3.6 q=24.8 size=N/A time=00:00:00.44 bitrate=N/A    frame=   24 fps=3.6 q=24.8 size=N/A time=00:00:00.48 bitrate=N/A    frame=   27 fps=3.7 q=24.8 size=N/A time=00:00:00.54 bitrate=N/A    frame=   30 fps=3.7 q=24.8 size=N/A time=00:00:00.60 bitrate=N/A    frame=   33 fps=3.8 q=24.8 size=N/A time=00:00:00.66 bitrate=N/A    frame=   35 fps=3.8 q=24.8 size=N/A time=00:00:00.70 bitrate=N/A    frame=   37 fps=3.8 q=24.8 size=N/A time=00:00:00.74 bitrate=N/A    frame=   39 fps=3.8 q=24.8 size=N/A time=00:00:00.78 bitrate=N/A    frame=   42 fps=3.9 q=24.8 size=N/A time=00:00:00.84 bitrate=N/A    frame=   44 fps=3.8 q=24.8 size=N/A time=00:00:00.88 bitrate=N/A    frame=   47 fps=3.9 q=24.8 size=N/A time=00:00:00.94 bitrate=N/A    frame=   50 fps=3.9 q=24.8 size=N/A time=00:00:01.00 bitrate=N/A    frame=   54 fps=4.0 q=24.8 size=N/A time=00:00:01.08 bitrate=N/A    frame=   57 fps=4.0 q=24.8 size=N/A time=00:00:01.14 bitrate=N/A    frame=   59 fps=4.0 q=24.8 size=N/A time=00:00:01.18 bitrate=N/A    frame=   62 fps=4.0 q=24.8 size=N/A time=00:00:01.24 bitrate=N/A    frame=   65 fps=4.1 q=24.8 size=N/A time=00:00:01.30 bitrate=N/A    frame=   68 fps=4.1 q=24.8 size=N/A time=00:00:01.36 bitrate=N/A    frame=   71 fps=4.2 q=24.8 size=N/A time=00:00:01.42 bitrate=N/A    frame=   75 fps=4.3 q=24.8 size=N/A time=00:00:01.50 bitrate=N/A    frame=   78 fps=4.3 q=24.8 size=N/A time=00:00:01.56 bitrate=N/A    frame=   82 fps=4.4 q=24.8 size=N/A time=00:00:01.64 bitrate=N/A    frame=   85 fps=4.4 q=24.8 size=N/A time=00:00:01.70 bitrate=N/A    frame=   88 fps=4.4 q=24.8 size=N/A time=00:00:01.76 bitrate=N/A    frame=   91 fps=4.4 q=24.8 size=N/A time=00:00:01.82 bitrate=N/A    frame=   93 fps=4.4 q=24.8 size=N/A time=00:00:01.86 bitrate=N/A    frame=   96 fps=4.4 q=24.8 size=N/A time=00:00:01.92 bitrate=N/A    frame=   99 fps=4.4 q=24.8 size=N/A time=00:00:01.98 bitrate=N/A    frame=  101 fps=4.4 q=24.8 size=N/A time=00:00:02.02 bitrate=N/A    frame=  104 fps=4.4 q=24.8 size=N/A time=00:00:02.08 bitrate=N/A    frame=  107 fps=4.4 q=24.8 size=N/A time=00:00:02.14 bitrate=N/A    frame=  110 fps=4.4 q=24.8 size=N/A time=00:00:02.20 bitrate=N/A    frame=  112 fps=4.4 q=24.8 size=N/A time=00:00:02.24 bitrate=N/A    frame=  115 fps=4.4 q=24.8 size=N/A time=00:00:02.30 bitrate=N/A    frame=  118 fps=4.4 q=24.8 size=N/A time=00:00:02.36 bitrate=N/A    frame=  121 fps=4.4 q=24.8 size=N/A time=00:00:02.42 bitrate=N/A    frame=  124 fps=4.4 q=24.8 size=N/A time=00:00:02.48 bitrate=N/A    frame=  126 fps=4.4 q=24.8 size=N/A time=00:00:02.52 bitrate=N/A    frame=  129 fps=4.4 q=24.8 size=N/A time=00:00:02.58 bitrate=N/A    frame=  133 fps=4.4 q=24.8 size=N/A time=00:00:02.66 bitrate=N/A    frame=  135 fps=4.4 q=24.8 size=N/A time=00:00:02.70 bitrate=N/A    frame=  137 fps=4.4 q=24.8 size=N/A time=00:00:02.74 bitrate=N/A    frame=  141 fps=4.4 q=24.8 size=N/A time=00:00:02.82 bitrate=N/A    frame=  145 fps=4.5 q=24.8 size=N/A time=00:00:02.90 bitrate=N/A    frame=  147 fps=4.5 q=24.8 size=N/A time=00:00:02.94 bitrate=N/A    frame=  149 fps=4.5 q=24.8 size=N/A time=00:00:02.98 bitrate=N/A    frame=  151 fps=4.5 q=24.8 size=N/A time=00:00:03.02 bitrate=N/A    frame=  154 fps=4.4 q=24.8 size=N/A time=00:00:03.08 bitrate=N/A    frame=  157 fps=4.5 q=24.8 size=N/A time=00:00:03.14 bitrate=N/A    frame=  159 fps=4.5 q=24.8 size=N/A time=00:00:03.18 bitrate=N/A    frame=  162 fps=4.5 q=24.8 size=N/A time=00:00:03.24 bitrate=N/A    frame=  164 fps=4.5 q=24.8 size=N/A time=00:00:03.28 bitrate=N/A    frame=  167 fps=4.5 q=24.8 size=N/A time=00:00:03.34 bitrate=N/A    frame=  170 fps=4.5 q=24.8 size=N/A time=00:00:03.40 bitrate=N/A    frame=  173 fps=4.5 q=24.8 size=N/A time=00:00:03.46 bitrate=N/A    frame=  175 fps=4.5 q=24.8 size=N/A time=00:00:03.50 bitrate=N/A    frame=  177 fps=4.5 q=24.8 size=N/A time=00:00:03.54 bitrate=N/A    frame=  179 fps=4.5 q=24.8 size=N/A time=00:00:03.58 bitrate=N/A    frame=  181 fps=4.4 q=24.8 size=N/A time=00:00:03.62 bitrate=N/A    frame=  183 fps=4.4 q=24.8 size=N/A time=00:00:03.66 bitrate=N/A    frame=  185 fps=4.4 q=24.8 size=N/A time=00:00:03.70 bitrate=N/A    frame=  188 fps=4.4 q=24.8 size=N/A time=00:00:03.76 bitrate=N/A    frame=  192 fps=4.5 q=24.8 size=N/A time=00:00:03.84 bitrate=N/A    frame=  195 fps=4.5 q=24.8 size=N/A time=00:00:03.90 bitrate=N/A    frame=  198 fps=4.5 q=24.8 size=N/A time=00:00:03.96 bitrate=N/A    frame=  201 fps=4.5 q=24.8 size=N/A time=00:00:04.02 bitrate=N/A    frame=  204 fps=4.5 q=24.8 size=N/A time=00:00:04.08 bitrate=N/A    frame=  207 fps=4.5 q=24.8 size=N/A time=00:00:04.14 bitrate=N/A    frame=  211 fps=4.5 q=24.8 size=N/A time=00:00:04.22 bitrate=N/A    frame=  214 fps=4.5 q=24.8 size=N/A time=00:00:04.28 bitrate=N/A    frame=  217 fps=4.5 q=24.8 size=N/A time=00:00:04.34 bitrate=N/A    frame=  220 fps=4.5 q=24.8 size=N/A time=00:00:04.40 bitrate=N/A    frame=  224 fps=4.5 q=24.8 size=N/A time=00:00:04.48 bitrate=N/A    frame=  227 fps=4.5 q=24.8 size=N/A time=00:00:04.54 bitrate=N/A    frame=  230 fps=4.6 q=24.8 size=N/A time=00:00:04.60 bitrate=N/A    frame=  233 fps=4.5 q=24.8 size=N/A time=00:00:04.66 bitrate=N/A    frame=  235 fps=4.5 q=24.8 size=N/A time=00:00:04.70 bitrate=N/A    frame=  238 fps=4.5 q=24.8 size=N/A time=00:00:04.76 bitrate=N/A    frame=  240 fps=4.5 q=24.8 size=N/A time=00:00:04.80 bitrate=N/A    frame=  242 fps=4.5 q=24.8 size=N/A time=00:00:04.84 bitrate=N/A    frame=  245 fps=4.5 q=24.8 size=N/A time=00:00:04.90 bitrate=N/A    frame=  249 fps=4.6 q=24.8 size=N/A time=00:00:04.98 bitrate=N/A    frame=  252 fps=4.6 q=24.8 size=N/A time=00:00:05.04 bitrate=N/A    frame=  255 fps=4.6 q=24.8 size=N/A time=00:00:05.10 bitrate=N/A    frame=  259 fps=4.6 q=24.8 size=N/A time=00:00:05.18 bitrate=N/A    frame=  261 fps=4.6 q=24.8 size=N/A time=00:00:05.22 bitrate=N/A    frame=  264 fps=4.6 q=24.8 size=N/A time=00:00:05.28 bitrate=N/A    frame=  267 fps=4.6 q=24.8 size=N/A time=00:00:05.34 bitrate=N/A    frame=  269 fps=4.6 q=24.8 size=N/A time=00:00:05.38 bitrate=N/A    frame=  272 fps=4.6 q=24.8 size=N/A time=00:00:05.44 bitrate=N/A    frame=  274 fps=4.6 q=24.8 size=N/A time=00:00:05.48 bitrate=N/A    frame=  277 fps=4.6 q=24.8 size=N/A time=00:00:05.54 bitrate=N/A    frame=  280 fps=4.6 q=24.8 size=N/A time=00:00:05.60 bitrate=N/A    frame=  283 fps=4.6 q=24.8 size=N/A time=00:00:05.66 bitrate=N/A    frame=  286 fps=4.6 q=24.8 size=N/A time=00:00:05.72 bitrate=N/A    frame=  289 fps=4.6 q=24.8 size=N/A time=00:00:05.78 bitrate=N/A    frame=  291 fps=4.6 q=24.8 size=N/A time=00:00:05.82 bitrate=N/A    frame=  293 fps=4.6 q=24.8 size=N/A time=00:00:05.86 bitrate=N/A    frame=  295 fps=4.6 q=24.8 size=N/A time=00:00:05.90 bitrate=N/A    frame=  297 fps=4.6 q=24.8 size=N/A time=00:00:05.94 bitrate=N/A    frame=  299 fps=4.6 q=24.8 size=N/A time=00:00:05.98 bitrate=N/A    frame=  302 fps=4.6 q=24.8 size=N/A time=00:00:06.04 bitrate=N/A    frame=  305 fps=4.6 q=24.8 size=N/A time=00:00:06.10 bitrate=N/A    frame=  308 fps=4.6 q=24.8 size=N/A time=00:00:06.16 bitrate=N/A    frame=  311 fps=4.5 q=24.8 size=N/A time=00:00:06.22 bitrate=N/A    frame=  314 fps=4.5 q=24.8 size=N/A time=00:00:06.28 bitrate=N/A    frame=  317 fps=4.5 q=24.8 size=N/A time=00:00:06.34 bitrate=N/A    frame=  320 fps=4.6 q=24.8 size=N/A time=00:00:06.40 bitrate=N/A    frame=  322 fps=4.5 q=24.8 size=N/A time=00:00:06.44 bitrate=N/A    frame=  324 fps=4.5 q=24.8 size=N/A time=00:00:06.48 bitrate=N/A    frame=  326 fps=4.5 q=24.8 size=N/A time=00:00:06.52 bitrate=N/A    frame=  329 fps=4.5 q=24.8 size=N/A time=00:00:06.58 bitrate=N/A    frame=  332 fps=4.5 q=24.8 size=N/A time=00:00:06.64 bitrate=N/A    frame=  334 fps=4.5 q=24.8 size=N/A time=00:00:06.68 bitrate=N/A    frame=  337 fps=4.5 q=24.8 size=N/A time=00:00:06.74 bitrate=N/A    frame=  341 fps=4.5 q=24.8 size=N/A time=00:00:06.82 bitrate=N/A    frame=  344 fps=4.5 q=24.8 size=N/A time=00:00:06.88 bitrate=N/A    frame=  347 fps=4.5 q=24.8 size=N/A time=00:00:06.94 bitrate=N/A    frame=  350 fps=4.5 q=24.8 size=N/A time=00:00:07.00 bitrate=N/A    frame=  353 fps=4.5 q=24.8 size=N/A time=00:00:07.06 bitrate=N/A    frame=  357 fps=4.5 q=24.8 size=N/A time=00:00:07.14 bitrate=N/A    frame=  360 fps=4.5 q=24.8 size=N/A time=00:00:07.20 bitrate=N/A    frame=  362 fps=4.5 q=24.8 size=N/A time=00:00:07.24 bitrate=N/A    frame=  364 fps=4.5 q=24.8 size=N/A time=00:00:07.28 bitrate=N/A    frame=  367 fps=4.5 q=24.8 size=N/A time=00:00:07.34 bitrate=N/A    frame=  369 fps=4.5 q=24.8 size=N/A time=00:00:07.38 bitrate=N/A    frame=  372 fps=4.5 q=24.8 size=N/A time=00:00:07.44 bitrate=N/A    frame=  375 fps=4.5 q=24.8 size=N/A time=00:00:07.50 bitrate=N/A    frame=  377 fps=4.5 q=24.8 size=N/A time=00:00:07.54 bitrate=N/A    frame=  380 fps=4.5 q=24.8 size=N/A time=00:00:07.60 bitrate=N/A    frame=  383 fps=4.5 q=24.8 size=N/A time=00:00:07.66 bitrate=N/A    frame=  386 fps=4.5 q=24.8 size=N/A time=00:00:07.72 bitrate=N/A    frame=  389 fps=4.5 q=24.8 size=N/A time=00:00:07.78 bitrate=N/A    frame=  393 fps=4.5 q=24.8 size=N/A time=00:00:07.86 bitrate=N/A    frame=  396 fps=4.5 q=24.8 size=N/A time=00:00:07.92 bitrate=N/A    frame=  398 fps=4.5 q=24.8 size=N/A time=00:00:07.96 bitrate=N/A    frame=  401 fps=4.5 q=24.8 size=N/A time=00:00:08.02 bitrate=N/A    frame=  404 fps=4.5 q=24.8 size=N/A time=00:00:08.08 bitrate=N/A    frame=  408 fps=4.6 q=24.8 size=N/A time=00:00:08.16 bitrate=N/A    frame=  411 fps=4.6 q=24.8 size=N/A time=00:00:08.22 bitrate=N/A    frame=  414 fps=4.6 q=24.8 size=N/A time=00:00:08.28 bitrate=N/A    frame=  416 fps=4.6 q=24.8 size=N/A time=00:00:08.32 bitrate=N/A    frame=  419 fps=4.5 q=24.8 size=N/A time=00:00:08.38 bitrate=N/A    frame=  422 fps=4.5 q=24.8 size=N/A time=00:00:08.44 bitrate=N/A    frame=  424 fps=4.5 q=24.8 size=N/A time=00:00:08.48 bitrate=N/A    frame=  426 fps=4.5 q=24.8 size=N/A time=00:00:08.52 bitrate=N/A    frame=  429 fps=4.5 q=24.8 size=N/A time=00:00:08.58 bitrate=N/A    frame=  432 fps=4.5 q=24.8 size=N/A time=00:00:08.64 bitrate=N/A    frame=  435 fps=4.5 q=24.8 size=N/A time=00:00:08.70 bitrate=N/A    frame=  438 fps=4.5 q=24.8 size=N/A time=00:00:08.76 bitrate=N/A    frame=  441 fps=4.5 q=24.8 size=N/A time=00:00:08.82 bitrate=N/A    frame=  444 fps=4.5 q=24.8 size=N/A time=00:00:08.88 bitrate=N/A    frame=  447 fps=4.5 q=24.8 size=N/A time=00:00:08.94 bitrate=N/A    frame=  449 fps=4.5 q=24.8 size=N/A time=00:00:08.98 bitrate=N/A    frame=  451 fps=4.5 q=24.8 size=N/A time=00:00:09.02 bitrate=N/A    frame=  454 fps=4.5 q=24.8 size=N/A time=00:00:09.08 bitrate=N/A    frame=  457 fps=4.5 q=24.8 size=N/A time=00:00:09.14 bitrate=N/A    frame=  460 fps=4.5 q=24.8 size=N/A time=00:00:09.20 bitrate=N/A    frame=  463 fps=4.5 q=24.8 size=N/A time=00:00:09.26 bitrate=N/A    frame=  466 fps=4.5 q=24.8 size=N/A time=00:00:09.32 bitrate=N/A    frame=  469 fps=4.5 q=24.8 size=N/A time=00:00:09.38 bitrate=N/A    frame=  472 fps=4.5 q=24.8 size=N/A time=00:00:09.44 bitrate=N/A    frame=  475 fps=4.5 q=24.8 size=N/A time=00:00:09.50 bitrate=N/A    frame=  478 fps=4.5 q=24.8 size=N/A time=00:00:09.56 bitrate=N/A    frame=  481 fps=4.5 q=24.8 size=N/A time=00:00:09.62 bitrate=N/A    frame=  485 fps=4.6 q=24.8 size=N/A time=00:00:09.70 bitrate=N/A    frame=  488 fps=4.6 q=24.8 size=N/A time=00:00:09.76 bitrate=N/A    frame=  490 fps=4.5 q=24.8 size=N/A time=00:00:09.80 bitrate=N/A    frame=  493 fps=4.5 q=24.8 size=N/A time=00:00:09.86 bitrate=N/A    frame=  496 fps=4.5 q=24.8 size=N/A time=00:00:09.92 bitrate=N/A    frame=  499 fps=4.5 q=24.8 size=N/A time=00:00:09.98 bitrate=N/A    frame=  502 fps=4.6 q=24.8 size=N/A time=00:00:10.04 bitrate=N/A    frame=  506 fps=4.6 q=24.8 size=N/A time=00:00:10.12 bitrate=N/A    frame=  509 fps=4.6 q=24.8 size=N/A time=00:00:10.18 bitrate=N/A    frame=  512 fps=4.6 q=24.8 size=N/A time=00:00:10.24 bitrate=N/A    frame=  515 fps=4.6 q=24.8 size=N/A time=00:00:10.30 bitrate=N/A    frame=  518 fps=4.6 q=24.8 size=N/A time=00:00:10.36 bitrate=N/A    frame=  521 fps=4.6 q=24.8 size=N/A time=00:00:10.42 bitrate=N/A    frame=  524 fps=4.6 q=24.8 size=N/A time=00:00:10.48 bitrate=N/A    frame=  526 fps=4.6 q=24.8 size=N/A time=00:00:10.52 bitrate=N/A    frame=  529 fps=4.6 q=24.8 size=N/A time=00:00:10.58 bitrate=N/A    frame=  532 fps=4.6 q=24.8 size=N/A time=00:00:10.64 bitrate=N/A    frame=  535 fps=4.6 q=24.8 size=N/A time=00:00:10.70 bitrate=N/A    frame=  538 fps=4.6 q=24.8 size=N/A time=00:00:10.76 bitrate=N/A    frame=  541 fps=4.6 q=24.8 size=N/A time=00:00:10.82 bitrate=N/A    frame=  544 fps=4.6 q=24.8 size=N/A time=00:00:10.88 bitrate=N/A    frame=  547 fps=4.6 q=24.8 size=N/A time=00:00:10.94 bitrate=N/A    frame=  550 fps=4.6 q=24.8 size=N/A time=00:00:11.00 bitrate=N/A    frame=  553 fps=4.6 q=24.8 size=N/A time=00:00:11.06 bitrate=N/A    frame=  556 fps=4.6 q=24.8 size=N/A time=00:00:11.12 bitrate=N/A    frame=  559 fps=4.6 q=24.8 size=N/A time=00:00:11.18 bitrate=N/A    frame=  562 fps=4.6 q=24.8 size=N/A time=00:00:11.24 bitrate=N/A    frame=  565 fps=4.6 q=24.8 size=N/A time=00:00:11.30 bitrate=N/A    frame=  568 fps=4.6 q=24.8 size=N/A time=00:00:11.36 bitrate=N/A    frame=  571 fps=4.6 q=24.8 size=N/A time=00:00:11.42 bitrate=N/A    frame=  574 fps=4.6 q=24.8 size=N/A time=00:00:11.48 bitrate=N/A    frame=  577 fps=4.6 q=24.8 size=N/A time=00:00:11.54 bitrate=N/A    frame=  580 fps=4.6 q=24.8 size=N/A time=00:00:11.60 bitrate=N/A    frame=  583 fps=4.6 q=24.8 size=N/A time=00:00:11.66 bitrate=N/A    frame=  586 fps=4.6 q=24.8 size=N/A time=00:00:11.72 bitrate=N/A    frame=  589 fps=4.6 q=24.8 size=N/A time=00:00:11.78 bitrate=N/A    frame=  592 fps=4.6 q=24.8 size=N/A time=00:00:11.84 bitrate=N/A    frame=  595 fps=4.6 q=24.8 size=N/A time=00:00:11.90 bitrate=N/A    frame=  597 fps=4.6 q=24.8 size=N/A time=00:00:11.94 bitrate=N/A    frame=  600 fps=4.6 q=24.8 size=N/A time=00:00:12.00 bitrate=N/A    frame=  602 fps=4.6 q=24.8 size=N/A time=00:00:12.04 bitrate=N/A    frame=  604 fps=4.6 q=24.8 size=N/A time=00:00:12.08 bitrate=N/A    frame=  607 fps=4.6 q=24.8 size=N/A time=00:00:12.14 bitrate=N/A    frame=  609 fps=4.6 q=24.8 size=N/A time=00:00:12.18 bitrate=N/A    frame=  612 fps=4.6 q=24.8 size=N/A time=00:00:12.24 bitrate=N/A    frame=  615 fps=4.6 q=24.8 size=N/A time=00:00:12.30 bitrate=N/A    frame=  618 fps=4.6 q=24.8 size=N/A time=00:00:12.36 bitrate=N/A    frame=  620 fps=4.6 q=24.8 size=N/A time=00:00:12.40 bitrate=N/A    frame=  622 fps=4.6 q=24.8 size=N/A time=00:00:12.44 bitrate=N/A    frame=  625 fps=4.6 q=24.8 size=N/A time=00:00:12.50 bitrate=N/A    frame=  628 fps=4.6 q=24.8 size=N/A time=00:00:12.56 bitrate=N/A    frame=  631 fps=4.6 q=24.8 size=N/A time=00:00:12.62 bitrate=N/A    frame=  634 fps=4.6 q=24.8 size=N/A time=00:00:12.68 bitrate=N/A    frame=  638 fps=4.6 q=24.8 size=N/A time=00:00:12.76 bitrate=N/A    frame=  641 fps=4.6 q=24.8 size=N/A time=00:00:12.82 bitrate=N/A    frame=  644 fps=4.6 q=24.8 size=N/A time=00:00:12.88 bitrate=N/A    frame=  647 fps=4.6 q=24.8 size=N/A time=00:00:12.94 bitrate=N/A    frame=  650 fps=4.6 q=24.8 size=N/A time=00:00:13.00 bitrate=N/A    frame=  653 fps=4.6 q=24.8 size=N/A time=00:00:13.06 bitrate=N/A    frame=  656 fps=4.6 q=24.8 size=N/A time=00:00:13.12 bitrate=N/A    frame=  659 fps=4.6 q=24.8 size=N/A time=00:00:13.18 bitrate=N/A    frame=  662 fps=4.6 q=24.8 size=N/A time=00:00:13.24 bitrate=N/A    frame=  665 fps=4.6 q=24.8 size=N/A time=00:00:13.30 bitrate=N/A    frame=  668 fps=4.6 q=24.8 size=N/A time=00:00:13.36 bitrate=N/A    frame=  670 fps=4.6 q=24.8 size=N/A time=00:00:13.40 bitrate=N/A    frame=  673 fps=4.6 q=24.8 size=N/A time=00:00:13.46 bitrate=N/A    frame=  676 fps=4.6 q=24.8 size=N/A time=00:00:13.52 bitrate=N/A    frame=  679 fps=4.6 q=24.8 size=N/A time=00:00:13.58 bitrate=N/A    frame=  682 fps=4.6 q=24.8 size=N/A time=00:00:13.64 bitrate=N/A    frame=  685 fps=4.6 q=24.8 size=N/A time=00:00:13.70 bitrate=N/A    frame=  687 fps=4.6 q=24.8 size=N/A time=00:00:13.74 bitrate=N/A    frame=  690 fps=4.6 q=24.8 size=N/A time=00:00:13.80 bitrate=N/A    frame=  692 fps=4.6 q=24.8 size=N/A time=00:00:13.84 bitrate=N/A    frame=  695 fps=4.6 q=24.8 size=N/A time=00:00:13.90 bitrate=N/A    frame=  698 fps=4.6 q=24.8 size=N/A time=00:00:13.96 bitrate=N/A    frame=  701 fps=4.6 q=24.8 size=N/A time=00:00:14.02 bitrate=N/A    frame=  704 fps=4.6 q=24.8 size=N/A time=00:00:14.08 bitrate=N/A    frame=  707 fps=4.6 q=24.8 size=N/A time=00:00:14.14 bitrate=N/A    frame=  710 fps=4.6 q=24.8 size=N/A time=00:00:14.20 bitrate=N/A    frame=  713 fps=4.6 q=24.8 size=N/A time=00:00:14.26 bitrate=N/A    frame=  716 fps=4.6 q=24.8 size=N/A time=00:00:14.32 bitrate=N/A    frame=  719 fps=4.6 q=24.8 size=N/A time=00:00:14.38 bitrate=N/A    frame=  723 fps=4.6 q=24.8 size=N/A time=00:00:14.46 bitrate=N/A    frame=  727 fps=4.6 q=24.8 size=N/A time=00:00:14.54 bitrate=N/A    frame=  730 fps=4.6 q=24.8 size=N/A time=00:00:14.60 bitrate=N/A    frame=  733 fps=4.6 q=24.8 size=N/A time=00:00:14.66 bitrate=N/A    frame=  736 fps=4.6 q=24.8 size=N/A time=00:00:14.72 bitrate=N/A    frame=  739 fps=4.6 q=24.8 size=N/A time=00:00:14.78 bitrate=N/A    frame=  742 fps=4.6 q=24.8 size=N/A time=00:00:14.84 bitrate=N/A    frame=  745 fps=4.6 q=24.8 size=N/A time=00:00:14.90 bitrate=N/A    frame=  748 fps=4.6 q=24.8 size=N/A time=00:00:14.96 bitrate=N/A    frame=  751 fps=4.6 q=24.8 size=N/A time=00:00:15.02 bitrate=N/A    frame=  754 fps=4.6 q=24.8 size=N/A time=00:00:15.08 bitrate=N/A    frame=  757 fps=4.6 q=24.8 size=N/A time=00:00:15.14 bitrate=N/A    frame=  760 fps=4.6 q=24.8 size=N/A time=00:00:15.20 bitrate=N/A    frame=  762 fps=4.6 q=24.8 size=N/A time=00:00:15.24 bitrate=N/A    frame=  765 fps=4.6 q=24.8 size=N/A time=00:00:15.30 bitrate=N/A    frame=  768 fps=4.6 q=24.8 size=N/A time=00:00:15.36 bitrate=N/A    frame=  771 fps=4.6 q=24.8 size=N/A time=00:00:15.42 bitrate=N/A    frame=  774 fps=4.6 q=24.8 size=N/A time=00:00:15.48 bitrate=N/A    frame=  777 fps=4.6 q=24.8 size=N/A time=00:00:15.54 bitrate=N/A    frame=  780 fps=4.6 q=24.8 size=N/A time=00:00:15.60 bitrate=N/A    frame=  783 fps=4.6 q=24.8 size=N/A time=00:00:15.66 bitrate=N/A    frame=  785 fps=4.6 q=24.8 size=N/A time=00:00:15.70 bitrate=N/A    frame=  788 fps=4.6 q=24.8 size=N/A time=00:00:15.76 bitrate=N/A    frame=  791 fps=4.6 q=24.8 size=N/A time=00:00:15.82 bitrate=N/A    frame=  794 fps=4.6 q=24.8 size=N/A time=00:00:15.88 bitrate=N/A    frame=  797 fps=4.6 q=24.8 size=N/A time=00:00:15.94 bitrate=N/A    frame=  800 fps=4.6 q=24.8 size=N/A time=00:00:16.00 bitrate=N/A    frame=  803 fps=4.6 q=24.8 size=N/A time=00:00:16.06 bitrate=N/A    frame=  806 fps=4.6 q=24.8 size=N/A time=00:00:16.12 bitrate=N/A    frame=  809 fps=4.6 q=24.8 size=N/A time=00:00:16.18 bitrate=N/A    frame=  812 fps=4.6 q=24.8 size=N/A time=00:00:16.24 bitrate=N/A    frame=  815 fps=4.6 q=24.8 size=N/A time=00:00:16.30 bitrate=N/A    frame=  818 fps=4.6 q=24.8 size=N/A time=00:00:16.36 bitrate=N/A    frame=  821 fps=4.6 q=24.8 size=N/A time=00:00:16.42 bitrate=N/A    frame=  824 fps=4.6 q=24.8 size=N/A time=00:00:16.48 bitrate=N/A    frame=  827 fps=4.6 q=24.8 size=N/A time=00:00:16.54 bitrate=N/A    frame=  831 fps=4.6 q=24.8 size=N/A time=00:00:16.62 bitrate=N/A    frame=  833 fps=4.6 q=24.8 size=N/A time=00:00:16.66 bitrate=N/A    frame=  837 fps=4.6 q=24.8 size=N/A time=00:00:16.74 bitrate=N/A    frame=  840 fps=4.6 q=24.8 size=N/A time=00:00:16.80 bitrate=N/A    frame=  842 fps=4.6 q=24.8 size=N/A time=00:00:16.84 bitrate=N/A    frame=  845 fps=4.6 q=24.8 size=N/A time=00:00:16.90 bitrate=N/A    frame=  848 fps=4.6 q=24.8 size=N/A time=00:00:16.96 bitrate=N/A    frame=  851 fps=4.6 q=24.8 size=N/A time=00:00:17.02 bitrate=N/A    frame=  854 fps=4.6 q=24.8 size=N/A time=00:00:17.08 bitrate=N/A    frame=  857 fps=4.6 q=24.8 size=N/A time=00:00:17.14 bitrate=N/A    frame=  860 fps=4.6 q=24.8 size=N/A time=00:00:17.20 bitrate=N/A    frame=  863 fps=4.6 q=24.8 size=N/A time=00:00:17.26 bitrate=N/A    frame=  865 fps=4.6 q=24.8 size=N/A time=00:00:17.30 bitrate=N/A    frame=  868 fps=4.6 q=24.8 size=N/A time=00:00:17.36 bitrate=N/A    frame=  871 fps=4.6 q=24.8 size=N/A time=00:00:17.42 bitrate=N/A    frame=  874 fps=4.6 q=24.8 size=N/A time=00:00:17.48 bitrate=N/A    frame=  877 fps=4.6 q=24.8 size=N/A time=00:00:17.54 bitrate=N/A    frame=  880 fps=4.6 q=24.8 size=N/A time=00:00:17.60 bitrate=N/A    frame=  883 fps=4.6 q=24.8 size=N/A time=00:00:17.66 bitrate=N/A    frame=  887 fps=4.6 q=24.8 size=N/A time=00:00:17.74 bitrate=N/A    frame=  890 fps=4.6 q=24.8 size=N/A time=00:00:17.80 bitrate=N/A    frame=  893 fps=4.6 q=24.8 size=N/A time=00:00:17.86 bitrate=N/A    frame=  896 fps=4.6 q=24.8 size=N/A time=00:00:17.92 bitrate=N/A    frame=  899 fps=4.6 q=24.8 size=N/A time=00:00:17.98 bitrate=N/A    frame=  902 fps=4.6 q=24.8 size=N/A time=00:00:18.04 bitrate=N/A    frame=  904 fps=4.6 q=24.8 size=N/A time=00:00:18.08 bitrate=N/A    frame=  907 fps=4.6 q=24.8 size=N/A time=00:00:18.14 bitrate=N/A    frame=  910 fps=4.6 q=24.8 size=N/A time=00:00:18.20 bitrate=N/A    frame=  914 fps=4.6 q=24.8 size=N/A time=00:00:18.28 bitrate=N/A    frame=  917 fps=4.6 q=24.8 size=N/A time=00:00:18.34 bitrate=N/A    frame=  920 fps=4.6 q=24.8 size=N/A time=00:00:18.40 bitrate=N/A    frame=  924 fps=4.6 q=24.8 size=N/A time=00:00:18.48 bitrate=N/A    frame=  927 fps=4.6 q=24.8 size=N/A time=00:00:18.54 bitrate=N/A    frame=  930 fps=4.6 q=24.8 size=N/A time=00:00:18.60 bitrate=N/A    frame=  933 fps=4.6 q=24.8 size=N/A time=00:00:18.66 bitrate=N/A    frame=  936 fps=4.6 q=24.8 size=N/A time=00:00:18.72 bitrate=N/A    frame=  940 fps=4.6 q=24.8 size=N/A time=00:00:18.80 bitrate=N/A    frame=  942 fps=4.6 q=24.8 size=N/A time=00:00:18.84 bitrate=N/A    frame=  945 fps=4.6 q=24.8 size=N/A time=00:00:18.90 bitrate=N/A    frame=  949 fps=4.6 q=24.8 size=N/A time=00:00:18.98 bitrate=N/A    frame=  952 fps=4.6 q=24.8 size=N/A time=00:00:19.04 bitrate=N/A    frame=  955 fps=4.6 q=24.8 size=N/A time=00:00:19.10 bitrate=N/A    frame=  958 fps=4.6 q=24.8 size=N/A time=00:00:19.16 bitrate=N/A    frame=  960 fps=4.6 q=24.8 size=N/A time=00:00:19.20 bitrate=N/A    frame=  962 fps=4.6 q=24.8 size=N/A time=00:00:19.24 bitrate=N/A    frame=  965 fps=4.6 q=24.8 size=N/A time=00:00:19.30 bitrate=N/A    frame=  968 fps=4.6 q=24.8 size=N/A time=00:00:19.36 bitrate=N/A    frame=  970 fps=4.6 q=24.8 size=N/A time=00:00:19.40 bitrate=N/A    frame=  972 fps=4.6 q=24.8 size=N/A time=00:00:19.44 bitrate=N/A    frame=  974 fps=4.6 q=24.8 size=N/A time=00:00:19.48 bitrate=N/A    frame=  976 fps=4.6 q=24.8 size=N/A time=00:00:19.52 bitrate=N/A    frame=  979 fps=4.6 q=24.8 size=N/A time=00:00:19.58 bitrate=N/A    frame=  981 fps=4.6 q=24.8 size=N/A time=00:00:19.62 bitrate=N/A    frame=  983 fps=4.6 q=24.8 size=N/A time=00:00:19.66 bitrate=N/A    frame=  985 fps=4.6 q=24.8 size=N/A time=00:00:19.70 bitrate=N/A    frame=  987 fps=4.6 q=24.8 size=N/A time=00:00:19.74 bitrate=N/A    frame=  990 fps=4.6 q=24.8 size=N/A time=00:00:19.80 bitrate=N/A    frame=  992 fps=4.6 q=24.8 size=N/A time=00:00:19.84 bitrate=N/A    frame=  994 fps=4.6 q=24.8 size=N/A time=00:00:19.88 bitrate=N/A    frame=  996 fps=4.6 q=24.8 size=N/A time=00:00:19.92 bitrate=N/A    frame=  998 fps=4.6 q=24.8 size=N/A time=00:00:19.96 bitrate=N/A    frame= 1001 fps=4.6 q=24.8 size=N/A time=00:00:20.02 bitrate=N/A    frame= 1005 fps=4.6 q=24.8 size=N/A time=00:00:20.10 bitrate=N/A    frame= 1008 fps=4.6 q=24.8 size=N/A time=00:00:20.16 bitrate=N/A    frame= 1011 fps=4.6 q=24.8 size=N/A time=00:00:20.22 bitrate=N/A    frame= 1015 fps=4.6 q=24.8 size=N/A time=00:00:20.30 bitrate=N/A    frame= 1018 fps=4.6 q=24.8 size=N/A time=00:00:20.36 bitrate=N/A    frame= 1020 fps=4.6 q=24.8 size=N/A time=00:00:20.40 bitrate=N/A    frame= 1023 fps=4.6 q=24.8 size=N/A time=00:00:20.46 bitrate=N/A    frame= 1026 fps=4.6 q=24.8 size=N/A time=00:00:20.52 bitrate=N/A    frame= 1029 fps=4.6 q=24.8 size=N/A time=00:00:20.58 bitrate=N/A    frame= 1032 fps=4.6 q=24.8 size=N/A time=00:00:20.64 bitrate=N/A    frame= 1035 fps=4.6 q=24.8 size=N/A time=00:00:20.70 bitrate=N/A    frame= 1037 fps=4.6 q=24.8 size=N/A time=00:00:20.74 bitrate=N/A    frame= 1040 fps=4.6 q=24.8 size=N/A time=00:00:20.80 bitrate=N/A    frame= 1044 fps=4.6 q=24.8 size=N/A time=00:00:20.88 bitrate=N/A    frame= 1047 fps=4.6 q=24.8 size=N/A time=00:00:20.94 bitrate=N/A    frame= 1051 fps=4.6 q=24.8 size=N/A time=00:00:21.02 bitrate=N/A    frame= 1054 fps=4.6 q=24.8 size=N/A time=00:00:21.08 bitrate=N/A    frame= 1057 fps=4.6 q=24.8 size=N/A time=00:00:21.14 bitrate=N/A    frame= 1060 fps=4.6 q=24.8 size=N/A time=00:00:21.20 bitrate=N/A    frame= 1063 fps=4.6 q=24.8 size=N/A time=00:00:21.26 bitrate=N/A    frame= 1066 fps=4.6 q=24.8 size=N/A time=00:00:21.32 bitrate=N/A    frame= 1068 fps=4.6 q=24.8 size=N/A time=00:00:21.36 bitrate=N/A    frame= 1070 fps=4.6 q=24.8 size=N/A time=00:00:21.40 bitrate=N/A    frame= 1073 fps=4.6 q=24.8 size=N/A time=00:00:21.46 bitrate=N/A    frame= 1077 fps=4.6 q=24.8 size=N/A time=00:00:21.54 bitrate=N/A    frame= 1080 fps=4.6 q=24.8 size=N/A time=00:00:21.60 bitrate=N/A    frame= 1083 fps=4.6 q=24.8 size=N/A time=00:00:21.66 bitrate=N/A    frame= 1085 fps=4.6 q=24.8 size=N/A time=00:00:21.70 bitrate=N/A    frame= 1087 fps=4.6 q=24.8 size=N/A time=00:00:21.74 bitrate=N/A    frame= 1089 fps=4.6 q=24.8 size=N/A time=00:00:21.78 bitrate=N/A    frame= 1092 fps=4.6 q=24.8 size=N/A time=00:00:21.84 bitrate=N/A    frame= 1095 fps=4.6 q=24.8 size=N/A time=00:00:21.90 bitrate=N/A    frame= 1098 fps=4.6 q=24.8 size=N/A time=00:00:21.96 bitrate=N/A    frame= 1102 fps=4.6 q=24.8 size=N/A time=00:00:22.04 bitrate=N/A    frame= 1106 fps=4.6 q=24.8 size=N/A time=00:00:22.12 bitrate=N/A    frame= 1108 fps=4.6 q=24.8 size=N/A time=00:00:22.16 bitrate=N/A    frame= 1108 fps=4.6 q=24.8 Lsize=N/A time=00:00:22.16 bitrate=N/A    
video:980352kB audio:0kB subtitle:0kB other streams:0kB global headers:0kB muxing overhead: unknown
+ turkic load DJI_0023_5m_30m_taposas_kotcse_20180710_napos_kalaszos_T4 /home/horvathandras/vatic/vatic/videos/DJI_0023_5m_30m_taposas_kotcse_20180710_napos_kalaszos_T4 $'Pozit\303\255vROI' $'Negat\303\255vROI' $'T\303\272r\303\241s' '~Friss' '~1-2Hetes' '~Régebbi' '~Egyéb1' '~Egyéb2' '~Egyéb3' $'R\303\241g\303\241s' '~Friss' '~1-2Hetes' '~Régebbi' '~Egyéb1' '~Egyéb2' '~Egyéb3' $'T\303\266r\303\251s' '~Friss' '~1-2Hetes' '~Régebbi' '~Egyéb1' '~Egyéb2' '~Egyéb3' $'Tapos\303\241s' '~Friss' '~1-2Hetes' '~Régebbi' '~Egyéb1' '~Egyéb2' '~Egyéb3' $'Eg\303\251szs\303\251gesN\303\266v\303\251ny' $'Egy\303\251b1' $'Egy\303\251b2' $'Egy\303\251b3' $'Egy\303\251b4' $'Egy\303\251b5' Bizonytalan $'M\305\261vel\305\221\303\272t' $'Gktapos\303\241s' $'Vet\305\221hiba' $'Sz\303\251ld\303\266nt\303\251s' $'J\303\251gk\303\241r' $'Belv\303\255z' $'Asz\303\241ly' $'Er\303\263zi\303\263' $'Egyszik\305\261Gyom' $'K\303\251tszik\305\261Gyom' $'Egy\303\251bN\303\266vv\303\251delmiPR' --offline --title '$filenameNoDot Video' --length 1000 --description 'vatic annotation'
+ turkic publish --offline
+ mkdir /home/horvathandras/vatic/vatic/public/videothumbnails/DJI_0023_5m_30m_taposas_kotcse_20180710_napos_kalaszos_T4
+ cp /home/horvathandras/vatic/vatic/videos/DJI_0023_5m_30m_taposas_kotcse_20180710_napos_kalaszos_T4/0/0/31.jpg /home/horvathandras/vatic/vatic/public/videothumbnails/DJI_0023_5m_30m_taposas_kotcse_20180710_napos_kalaszos_T4/thumb.jpg
